<mxfile host="Electron" modified="2023-07-21T12:21:30.824Z" agent="Mozilla/5.0 (Windows NT 10.0; Win64; x64) AppleWebKit/537.36 (KHTML, like Gecko) draw.io/21.6.1 Chrome/112.0.5615.204 Electron/24.6.1 Safari/537.36" etag="s3MrfA-S_P-aiJz3o5p4" version="21.6.1" type="device">
  <diagram name="Pagina-1" id="ZosER6FYlhUaswWea86L">
    <mxGraphModel dx="1532" dy="677" grid="1" gridSize="10" guides="1" tooltips="1" connect="1" arrows="1" fold="1" page="1" pageScale="1" pageWidth="291" pageHeight="413" math="0" shadow="0">
      <root>
        <mxCell id="0" />
        <mxCell id="1" parent="0" />
        <mxCell id="RC5CroMytO5CbKUsDzlH-8" value="Click" style="edgeStyle=orthogonalEdgeStyle;rounded=0;orthogonalLoop=1;jettySize=auto;html=1;" parent="1" source="RC5CroMytO5CbKUsDzlH-5" target="RC5CroMytO5CbKUsDzlH-6" edge="1">
          <mxGeometry relative="1" as="geometry" />
        </mxCell>
        <mxCell id="RC5CroMytO5CbKUsDzlH-5" value="0: No piece selected" style="ellipse;whiteSpace=wrap;html=1;aspect=fixed;" parent="1" vertex="1">
          <mxGeometry x="-29" y="300" width="80" height="80" as="geometry" />
        </mxCell>
        <mxCell id="RC5CroMytO5CbKUsDzlH-9" value="Click" style="edgeStyle=orthogonalEdgeStyle;rounded=0;orthogonalLoop=1;jettySize=auto;html=1;" parent="1" source="RC5CroMytO5CbKUsDzlH-6" target="RC5CroMytO5CbKUsDzlH-7" edge="1">
          <mxGeometry relative="1" as="geometry" />
        </mxCell>
        <mxCell id="RC5CroMytO5CbKUsDzlH-6" value="1: 1 piece selected&lt;br&gt;(highlight)" style="ellipse;whiteSpace=wrap;html=1;aspect=fixed;" parent="1" vertex="1">
          <mxGeometry x="156" y="300" width="80" height="80" as="geometry" />
        </mxCell>
        <mxCell id="RC5CroMytO5CbKUsDzlH-10" value="dT" style="edgeStyle=orthogonalEdgeStyle;rounded=0;orthogonalLoop=1;jettySize=auto;html=1;entryX=1;entryY=0.5;entryDx=0;entryDy=0;" parent="1" source="RC5CroMytO5CbKUsDzlH-7" target="RC5CroMytO5CbKUsDzlH-12" edge="1">
          <mxGeometry relative="1" as="geometry">
            <Array as="points">
              <mxPoint x="421" y="340" />
              <mxPoint x="421" y="550" />
            </Array>
          </mxGeometry>
        </mxCell>
        <mxCell id="RC5CroMytO5CbKUsDzlH-14" value="dT" style="edgeStyle=orthogonalEdgeStyle;rounded=0;orthogonalLoop=1;jettySize=auto;html=1;entryX=1;entryY=0.5;entryDx=0;entryDy=0;" parent="1" source="RC5CroMytO5CbKUsDzlH-7" target="RC5CroMytO5CbKUsDzlH-13" edge="1">
          <mxGeometry relative="1" as="geometry">
            <Array as="points">
              <mxPoint x="356" y="440" />
            </Array>
          </mxGeometry>
        </mxCell>
        <mxCell id="RC5CroMytO5CbKUsDzlH-7" value="2: 2 pieces selected&lt;br&gt;(highlight)" style="ellipse;whiteSpace=wrap;html=1;aspect=fixed;" parent="1" vertex="1">
          <mxGeometry x="316" y="300" width="80" height="80" as="geometry" />
        </mxCell>
        <mxCell id="RC5CroMytO5CbKUsDzlH-16" value="Transparency&lt;br&gt;reached 100%" style="edgeStyle=orthogonalEdgeStyle;rounded=0;orthogonalLoop=1;jettySize=auto;html=1;entryX=1;entryY=0.5;entryDx=0;entryDy=0;" parent="1" source="RC5CroMytO5CbKUsDzlH-12" target="RC5CroMytO5CbKUsDzlH-15" edge="1">
          <mxGeometry relative="1" as="geometry" />
        </mxCell>
        <mxCell id="RC5CroMytO5CbKUsDzlH-12" value="4: Piece starts to disappear" style="ellipse;whiteSpace=wrap;html=1;aspect=fixed;" parent="1" vertex="1">
          <mxGeometry x="316" y="510" width="80" height="80" as="geometry" />
        </mxCell>
        <mxCell id="RC5CroMytO5CbKUsDzlH-21" value="dT" style="edgeStyle=orthogonalEdgeStyle;rounded=0;orthogonalLoop=1;jettySize=auto;html=1;entryX=0.5;entryY=1;entryDx=0;entryDy=0;" parent="1" source="RC5CroMytO5CbKUsDzlH-13" target="RC5CroMytO5CbKUsDzlH-5" edge="1">
          <mxGeometry relative="1" as="geometry">
            <Array as="points">
              <mxPoint x="11" y="440" />
            </Array>
          </mxGeometry>
        </mxCell>
        <mxCell id="RC5CroMytO5CbKUsDzlH-13" value="3: Notify wrong choice&lt;br&gt;(highlight both red?)" style="ellipse;whiteSpace=wrap;html=1;aspect=fixed;" parent="1" vertex="1">
          <mxGeometry x="81" y="400" width="80" height="80" as="geometry" />
        </mxCell>
        <mxCell id="RC5CroMytO5CbKUsDzlH-18" value="dT" style="edgeStyle=orthogonalEdgeStyle;rounded=0;orthogonalLoop=1;jettySize=auto;html=1;entryX=0;entryY=0.5;entryDx=0;entryDy=0;" parent="1" source="RC5CroMytO5CbKUsDzlH-15" target="RC5CroMytO5CbKUsDzlH-5" edge="1">
          <mxGeometry relative="1" as="geometry">
            <mxPoint x="15" y="550" as="targetPoint" />
            <Array as="points">
              <mxPoint x="-59" y="550" />
              <mxPoint x="-59" y="340" />
            </Array>
          </mxGeometry>
        </mxCell>
        <mxCell id="ZZRbV6lh6ORgGEoJmu9F-2" style="edgeStyle=orthogonalEdgeStyle;rounded=0;orthogonalLoop=1;jettySize=auto;html=1;" parent="1" source="RC5CroMytO5CbKUsDzlH-15" target="ZZRbV6lh6ORgGEoJmu9F-1" edge="1">
          <mxGeometry relative="1" as="geometry" />
        </mxCell>
        <mxCell id="ZZRbV6lh6ORgGEoJmu9F-3" value="Game is&lt;br&gt;ended&lt;br&gt;(Won or lost)" style="edgeLabel;html=1;align=center;verticalAlign=middle;resizable=0;points=[];" parent="ZZRbV6lh6ORgGEoJmu9F-2" vertex="1" connectable="0">
          <mxGeometry x="-0.0571" y="2" relative="1" as="geometry">
            <mxPoint as="offset" />
          </mxGeometry>
        </mxCell>
        <mxCell id="RC5CroMytO5CbKUsDzlH-15" value="5: Transparency 100% reached&lt;br&gt;+ Word matrix" style="ellipse;whiteSpace=wrap;html=1;aspect=fixed;" parent="1" vertex="1">
          <mxGeometry x="81" y="510" width="80" height="80" as="geometry" />
        </mxCell>
        <mxCell id="BiML--l_YuYtLMepY_ds-2" style="edgeStyle=orthogonalEdgeStyle;rounded=0;orthogonalLoop=1;jettySize=auto;html=1;" parent="1" source="BiML--l_YuYtLMepY_ds-1" target="RC5CroMytO5CbKUsDzlH-5" edge="1">
          <mxGeometry relative="1" as="geometry" />
        </mxCell>
        <mxCell id="BiML--l_YuYtLMepY_ds-1" value="-1: menÃ¹" style="ellipse;whiteSpace=wrap;html=1;aspect=fixed;" parent="1" vertex="1">
          <mxGeometry x="-29" y="150" width="80" height="80" as="geometry" />
        </mxCell>
        <mxCell id="BiML--l_YuYtLMepY_ds-3" value="" style="endArrow=classic;html=1;rounded=0;" parent="1" target="BiML--l_YuYtLMepY_ds-1" edge="1">
          <mxGeometry width="50" height="50" relative="1" as="geometry">
            <mxPoint x="121" y="140" as="sourcePoint" />
            <mxPoint x="161" y="150" as="targetPoint" />
          </mxGeometry>
        </mxCell>
        <mxCell id="ZZRbV6lh6ORgGEoJmu9F-5" style="edgeStyle=orthogonalEdgeStyle;rounded=0;orthogonalLoop=1;jettySize=auto;html=1;" parent="1" source="ZZRbV6lh6ORgGEoJmu9F-1" target="ZZRbV6lh6ORgGEoJmu9F-4" edge="1">
          <mxGeometry relative="1" as="geometry" />
        </mxCell>
        <mxCell id="ZZRbV6lh6ORgGEoJmu9F-6" value="dT" style="edgeLabel;html=1;align=center;verticalAlign=middle;resizable=0;points=[];" parent="ZZRbV6lh6ORgGEoJmu9F-5" vertex="1" connectable="0">
          <mxGeometry x="-0.1714" y="2" relative="1" as="geometry">
            <mxPoint as="offset" />
          </mxGeometry>
        </mxCell>
        <mxCell id="ZZRbV6lh6ORgGEoJmu9F-1" value="6: show&lt;br&gt;victory or loss screen" style="ellipse;whiteSpace=wrap;html=1;aspect=fixed;" parent="1" vertex="1">
          <mxGeometry x="81" y="660" width="80" height="80" as="geometry" />
        </mxCell>
        <mxCell id="ZZRbV6lh6ORgGEoJmu9F-7" style="edgeStyle=orthogonalEdgeStyle;rounded=0;orthogonalLoop=1;jettySize=auto;html=1;entryX=0;entryY=0.5;entryDx=0;entryDy=0;" parent="1" source="ZZRbV6lh6ORgGEoJmu9F-4" target="BiML--l_YuYtLMepY_ds-1" edge="1">
          <mxGeometry relative="1" as="geometry">
            <mxPoint x="-89" y="270" as="targetPoint" />
            <Array as="points">
              <mxPoint x="-129" y="700" />
              <mxPoint x="-129" y="190" />
            </Array>
          </mxGeometry>
        </mxCell>
        <mxCell id="ZZRbV6lh6ORgGEoJmu9F-8" value="enter" style="edgeLabel;html=1;align=center;verticalAlign=middle;resizable=0;points=[];" parent="ZZRbV6lh6ORgGEoJmu9F-7" vertex="1" connectable="0">
          <mxGeometry x="-0.0925" y="-1" relative="1" as="geometry">
            <mxPoint as="offset" />
          </mxGeometry>
        </mxCell>
        <mxCell id="ZZRbV6lh6ORgGEoJmu9F-4" value="7: wait for enter key to reset the game" style="ellipse;whiteSpace=wrap;html=1;aspect=fixed;" parent="1" vertex="1">
          <mxGeometry x="-69" y="660" width="80" height="80" as="geometry" />
        </mxCell>
        <mxCell id="ZZRbV6lh6ORgGEoJmu9F-9" value="&lt;font style=&quot;&quot;&gt;&lt;font style=&quot;font-size: 36px;&quot;&gt;&lt;b&gt;State machine &lt;/b&gt;&lt;/font&gt;&lt;br&gt;&lt;span style=&quot;font-size: 14px;&quot;&gt;(implemented in mahjog.cpp)&lt;/span&gt;&lt;/font&gt;" style="text;html=1;align=center;verticalAlign=middle;resizable=0;points=[];autosize=1;strokeColor=none;fillColor=none;" parent="1" vertex="1">
          <mxGeometry x="11" y="20" width="270" height="70" as="geometry" />
        </mxCell>
      </root>
    </mxGraphModel>
  </diagram>
</mxfile>
